<svg xmlns="http://www.w3.org/2000/svg" width="1366" height="352" viewBox="0 0 1366 352">
  <defs>
    <style>
      .cls-1 {
        fill: #fff;
        fill-rule: evenodd;
      }
    </style>
  </defs>
  <g id="Artboard_1" data-name="Artboard 1">
    <path id="FREE_SHIPPING_" data-name="FREE SHIPPING    " class="cls-1" d="M98.637,377.991H123.5v-9.62H98.637v9.62Zm0.962-23.31h27.084v-9.62H87.537v51.8H99.6v-42.18Zm47.285,42.18V377.177l-5.476,5.18h15.836a30,30,0,0,0,11.988-2.183A17.188,17.188,0,0,0,177,373.81a19.662,19.662,0,0,0,0-20.017,17.564,17.564,0,0,0-7.77-6.475,29.121,29.121,0,0,0-11.988-2.257H134.822v51.8h12.062Zm33.818,0-13.024-18.8H154.8l13.024,18.8H180.7Zm-33.818-47.73-5.476,5.7h15.17q5.475,0,8.288,2.331a8.121,8.121,0,0,1,2.812,6.623,8.231,8.231,0,0,1-2.812,6.66q-2.812,2.369-8.288,2.368h-15.17l5.476,5.7V349.131Zm53.353,26.122h24.938v-9.4H200.237v9.4Zm0.888-20.572h27.232v-9.62H189.211v51.8h40.108v-9.62H201.125v-32.56Zm48.765,20.572h24.938v-9.4H249.89v9.4Zm0.888-20.572H278.01v-9.62H238.864v51.8h40.108v-9.62H250.778v-32.56Zm87.985,40.848a16.773,16.773,0,0,0,7.289-5.846,14.165,14.165,0,0,0,2.4-7.992,12.053,12.053,0,0,0-5.994-10.989,28.7,28.7,0,0,0-5.846-2.627,65.394,65.394,0,0,0-6.438-1.739q-3.258-.7-5.92-1.406a11.943,11.943,0,0,1-4.292-1.961,4,4,0,0,1-1.628-3.33,4.817,4.817,0,0,1,1-2.96,6.6,6.6,0,0,1,3.145-2.109,17.131,17.131,0,0,1,5.7-.777,27.252,27.252,0,0,1,7.1,1,30.187,30.187,0,0,1,7.178,3l3.774-9.028a28.583,28.583,0,0,0-8.325-3.4,39.981,39.981,0,0,0-9.657-1.184,29.694,29.694,0,0,0-12.173,2.183,16.192,16.192,0,0,0-7.215,5.846,14.606,14.606,0,0,0-2.368,8.1,13.151,13.151,0,0,0,1.591,6.771,12.517,12.517,0,0,0,4.292,4.366,25.784,25.784,0,0,0,5.92,2.664q3.219,1,6.4,1.7t5.883,1.48a13.359,13.359,0,0,1,4.329,2,3.907,3.907,0,0,1,1.628,3.293,4.273,4.273,0,0,1-1.036,2.849,7.125,7.125,0,0,1-3.219,1.961,18.3,18.3,0,0,1-5.735.74,29.306,29.306,0,0,1-9.25-1.517,28.361,28.361,0,0,1-7.844-3.885l-4.07,9.028a27.843,27.843,0,0,0,9.213,4.329,42.641,42.641,0,0,0,11.951,1.665A29.52,29.52,0,0,0,338.763,395.529Zm53.427,1.332h11.988v-51.8H392.19v51.8Zm-23.458-51.8H356.67v51.8h12.062v-51.8Zm24.346,20.424H367.77v10.138h25.308V365.485Zm35.446,31.376v-51.8H416.462v51.8h12.062Zm24.271,0V377.177l-5.476,5.4h15.836a28.729,28.729,0,0,0,11.988-2.294,18.629,18.629,0,0,0,7.77-26.492,17.564,17.564,0,0,0-7.77-6.475,29.127,29.127,0,0,0-11.988-2.257H440.733v51.8H452.8Zm0-47.73-5.476,5.7h15.17q5.475,0,8.288,2.331a8.121,8.121,0,0,1,2.812,6.623,8.231,8.231,0,0,1-2.812,6.66q-2.814,2.369-8.288,2.368h-15.17l5.476,5.7V349.131Zm53.428,47.73V377.177l-5.476,5.4h15.836a28.729,28.729,0,0,0,11.988-2.294,18.629,18.629,0,0,0,7.77-26.492,17.564,17.564,0,0,0-7.77-6.475,29.127,29.127,0,0,0-11.988-2.257H494.161v51.8h12.062Zm0-47.73-5.476,5.7h15.17q5.475,0,8.288,2.331a8.121,8.121,0,0,1,2.812,6.623,8.231,8.231,0,0,1-2.812,6.66q-2.814,2.369-8.288,2.368h-15.17l5.476,5.7V349.131Zm53.428,47.73v-51.8H547.589v51.8h12.062Zm24.049,0v-37.3h-4.81l30.562,37.3h9.916v-51.8h-11.84v37.3h4.81l-30.562-37.3H571.86v51.8H583.7Zm84.064-.777a30.727,30.727,0,0,0,9.842-4.921l-6.808-8.658a19.91,19.91,0,0,1-13.468,5.106,17.683,17.683,0,0,1-6.771-1.258,16.332,16.332,0,0,1-5.328-3.478,15.185,15.185,0,0,1-3.478-5.291,18.874,18.874,0,0,1,0-13.357,15.257,15.257,0,0,1,3.478-5.254,15.774,15.774,0,0,1,5.365-3.441,18.456,18.456,0,0,1,6.808-1.221,18.231,18.231,0,0,1,7.326,1.443,19.087,19.087,0,0,1,6.216,4.477l7.622-7.1a24.549,24.549,0,0,0-9.287-6.66,34.373,34.373,0,0,0-23.791-.333,26.867,26.867,0,0,0-9.028,5.587,25.4,25.4,0,0,0-5.957,8.51,28.35,28.35,0,0,0,0,21.46,25.786,25.786,0,0,0,14.837,14.1,31.749,31.749,0,0,0,11.322,1.961A38.457,38.457,0,0,0,667.764,396.084Zm9.842-4.921V370.147H666.654v19.462Z" transform="translate(0 -201)"/>
    <path id="Order_now_and_enjoy_free_shipping_on_all_orders_over_2000._D" data-name="Order now and enjoy  free shipping on all orders  over ₱2000. D" class="cls-1" d="M795.758,340.425a12.615,12.615,0,0,0,4.194-2.682,12.256,12.256,0,0,0,2.772-4.068,13.693,13.693,0,0,0,0-10.224,12.266,12.266,0,0,0-2.772-4.068,12.63,12.63,0,0,0-4.194-2.682,15.055,15.055,0,0,0-10.548,0,12.451,12.451,0,0,0-6.966,6.768,13.6,13.6,0,0,0,0,10.188,12.41,12.41,0,0,0,6.984,6.768A15.005,15.005,0,0,0,795.758,340.425Zm-9.468-2.2a10.006,10.006,0,0,1-5.616-5.526,11.264,11.264,0,0,1,0-8.3,10.048,10.048,0,0,1,5.616-5.508,11.283,11.283,0,0,1,4.212-.774,11.148,11.148,0,0,1,4.194.774,9.932,9.932,0,0,1,3.348,2.2,10.264,10.264,0,0,1,2.214,3.312,11.311,11.311,0,0,1,0,8.316,10.254,10.254,0,0,1-2.214,3.312,9.9,9.9,0,0,1-3.348,2.2A11.129,11.129,0,0,1,790.5,339,11.263,11.263,0,0,1,786.29,338.229Zm25.415,2.934v-9.648a7.3,7.3,0,0,1,1.692-5.166,6.083,6.083,0,0,1,4.68-1.818,2.32,2.32,0,0,1,.288.018,2.142,2.142,0,0,0,.288.018v-2.484a8.819,8.819,0,0,0-4.644,1.134,6.228,6.228,0,0,0-2.664,3.294l0.252,0.9v-5.148h-2.448v18.9h2.556Zm23.418-.954a8.1,8.1,0,0,0,3.114-3.294,10.962,10.962,0,0,0,1.152-5.22,10.8,10.8,0,0,0-1.17-5.238,8.129,8.129,0,0,0-3.132-3.258,8.842,8.842,0,0,0-4.446-1.116,9.7,9.7,0,0,0-4.842,1.206,8.731,8.731,0,0,0-3.366,3.366,10.951,10.951,0,0,0,0,10.062,8.8,8.8,0,0,0,3.366,3.4,9.584,9.584,0,0,0,4.842,1.224A8.793,8.793,0,0,0,835.123,340.209Zm-7.866-2.052a6.713,6.713,0,0,1-2.52-2.592,8.506,8.506,0,0,1,0-7.758,6.754,6.754,0,0,1,2.52-2.574,6.977,6.977,0,0,1,3.564-.918,7.145,7.145,0,0,1,3.618.918,6.587,6.587,0,0,1,2.52,2.574,8.654,8.654,0,0,1,0,7.758,6.549,6.549,0,0,1-2.52,2.592,7.145,7.145,0,0,1-3.618.918A6.977,6.977,0,0,1,827.257,338.157Zm13.14,3.006V314.451h-2.556v13.392l0.36,3.816-0.252,3.816v5.688H840.4Zm19.314-.612a8.1,8.1,0,0,0,3.15-2.3l-1.44-1.656a6.684,6.684,0,0,1-2.574,1.872,8.4,8.4,0,0,1-3.222.612,8.128,8.128,0,0,1-3.906-.918,6.658,6.658,0,0,1-2.664-2.556,7.408,7.408,0,0,1-.954-3.8v-0.4a7.761,7.761,0,0,1,.864-3.708,6.257,6.257,0,0,1,2.412-2.52,6.829,6.829,0,0,1,3.492-.9,6.706,6.706,0,0,1,3.492.9,6.5,6.5,0,0,1,2.394,2.5,7.45,7.45,0,0,1,.882,3.654l1.008-.756H847.561v1.908h16.452q0-.216.018-0.414t0.018-.378a10.326,10.326,0,0,0-1.188-5.022,8.6,8.6,0,0,0-3.258-3.384,9.767,9.767,0,0,0-9.468.036,8.931,8.931,0,0,0-3.312,3.4,10.018,10.018,0,0,0-1.206,4.968,9.775,9.775,0,0,0,1.26,4.986,9.018,9.018,0,0,0,3.492,3.42,10.486,10.486,0,0,0,5.184,1.242A10.654,10.654,0,0,0,859.711,340.551Zm12.114,0.612v-9.648a7.3,7.3,0,0,1,1.692-5.166,6.08,6.08,0,0,1,4.68-1.818,2.344,2.344,0,0,1,.288.018,2.121,2.121,0,0,0,.288.018v-2.484a8.814,8.814,0,0,0-4.644,1.134,6.219,6.219,0,0,0-2.664,3.294l0.252,0.9v-5.148h-2.448v18.9h2.556Zm26.243-17.91a6.872,6.872,0,0,0-2.88,3.222l0.4,0.972v-5.184h-2.448v18.9h2.556v-9.936a7.8,7.8,0,0,1,.81-3.69,5.556,5.556,0,0,1,2.3-2.34,7.25,7.25,0,0,1,3.51-.81,5.593,5.593,0,0,1,4.194,1.53A6.223,6.223,0,0,1,908,330.435v10.728h2.556v-10.98a9.337,9.337,0,0,0-.99-4.536,6.353,6.353,0,0,0-2.736-2.682,8.873,8.873,0,0,0-4.05-.882A9.112,9.112,0,0,0,898.068,323.253ZM930.144,340.1a8.965,8.965,0,0,0,3.438-3.42,9.886,9.886,0,0,0,1.242-4.986,9.764,9.764,0,0,0-1.242-4.986,9.093,9.093,0,0,0-3.42-3.384,10.589,10.589,0,0,0-9.918-.018,9.069,9.069,0,0,0-3.42,3.384,10.5,10.5,0,0,0,0,9.972,9.126,9.126,0,0,0,3.42,3.438,9.712,9.712,0,0,0,4.932,1.242A9.919,9.919,0,0,0,930.144,340.1Zm-8.55-1.944a6.747,6.747,0,0,1-2.5-2.592,8.506,8.506,0,0,1,0-7.758,6.739,6.739,0,0,1,2.52-2.574,7.518,7.518,0,0,1,7.2,0,6.632,6.632,0,0,1,2.5,2.574,8.654,8.654,0,0,1,0,7.758,6.593,6.593,0,0,1-2.5,2.592,7.121,7.121,0,0,1-3.636.918A6.947,6.947,0,0,1,921.594,338.157Zm24.174,3.006,6.372-16.488h-0.756l6.336,16.488h2.412l7.164-18.9h-2.34L958.368,339.8h1.116L952.9,322.263h-2.2L944.04,339.8h1.116l-6.48-17.532h-2.448l7.128,18.9h2.412Zm49.1,0V329.427q0-3.707-2-5.526a8.135,8.135,0,0,0-5.67-1.818,13.455,13.455,0,0,0-4.248.666,10.25,10.25,0,0,0-3.456,1.89l1.152,1.908a8.934,8.934,0,0,1,2.808-1.62,9.992,9.992,0,0,1,3.492-.612,5.587,5.587,0,0,1,4.014,1.3,4.9,4.9,0,0,1,1.35,3.708V336.3l0.108,0.684v4.176h2.448Zm-4.482-.936a6,6,0,0,0,2.5-2.988l-0.576-1.764a5.686,5.686,0,0,1-2.286,2.862,6.818,6.818,0,0,1-3.726.99,5.658,5.658,0,0,1-3.528-.972,3.284,3.284,0,0,1-.2-5q1.062-.972,3.8-0.972h6.444v-1.908H986.3a10.441,10.441,0,0,0-4.3.738,4.942,4.942,0,0,0-2.3,1.944,5.236,5.236,0,0,0-.7,2.682,5.039,5.039,0,0,0,.828,2.862,5.48,5.48,0,0,0,2.394,1.944,8.958,8.958,0,0,0,3.69.7A8.3,8.3,0,0,0,990.389,340.227Zm16.361-16.974a6.877,6.877,0,0,0-2.88,3.222l0.4,0.972v-5.184h-2.45v18.9h2.56v-9.936a7.8,7.8,0,0,1,.81-3.69,5.525,5.525,0,0,1,2.3-2.34,7.223,7.223,0,0,1,3.51-.81,5.574,5.574,0,0,1,4.19,1.53,6.2,6.2,0,0,1,1.5,4.518v10.728h2.55v-10.98a9.337,9.337,0,0,0-.99-4.536,6.355,6.355,0,0,0-2.73-2.682,8.9,8.9,0,0,0-4.05-.882A9.115,9.115,0,0,0,1006.75,323.253Zm31.41,16.956a8.028,8.028,0,0,0,3.11-3.294,10.938,10.938,0,0,0,1.16-5.22,10.8,10.8,0,0,0-1.17-5.238,8.134,8.134,0,0,0-3.14-3.258,8.814,8.814,0,0,0-4.44-1.116,9.668,9.668,0,0,0-4.84,1.206,8.755,8.755,0,0,0-3.37,3.366,10.983,10.983,0,0,0,0,10.062,8.828,8.828,0,0,0,3.37,3.4,9.555,9.555,0,0,0,4.84,1.224A8.791,8.791,0,0,0,1038.16,340.209Zm-7.87-2.052a6.8,6.8,0,0,1-2.52-2.592,8.555,8.555,0,0,1,0-7.758,6.84,6.84,0,0,1,2.52-2.574,7.009,7.009,0,0,1,3.57-.918,7.169,7.169,0,0,1,3.62.918,6.7,6.7,0,0,1,2.52,2.574,8.722,8.722,0,0,1,0,7.758,6.657,6.657,0,0,1-2.52,2.592,7.169,7.169,0,0,1-3.62.918A7.009,7.009,0,0,1,1030.29,338.157Zm13.14,3.006V314.451h-2.55v13.392l0.36,3.816-0.25,3.816v5.688h2.44Zm28.75-.612a8.1,8.1,0,0,0,3.15-2.3l-1.44-1.656a6.716,6.716,0,0,1-2.57,1.872,8.424,8.424,0,0,1-3.23.612,8.115,8.115,0,0,1-3.9-.918,6.7,6.7,0,0,1-2.67-2.556,7.466,7.466,0,0,1-.95-3.8v-0.4a7.829,7.829,0,0,1,.86-3.708,6.25,6.25,0,0,1,2.42-2.52,6.806,6.806,0,0,1,3.49-.9,6.7,6.7,0,0,1,3.49.9,6.418,6.418,0,0,1,2.39,2.5,7.432,7.432,0,0,1,.89,3.654l1-.756h-15.08v1.908h16.45c0-.144.01-0.282,0.02-0.414s0.02-.257.02-0.378a10.349,10.349,0,0,0-1.19-5.022,8.586,8.586,0,0,0-3.26-3.384,9.771,9.771,0,0,0-9.47.036,9,9,0,0,0-3.31,3.4,10.059,10.059,0,0,0-1.2,4.968,9.775,9.775,0,0,0,1.26,4.986,9,9,0,0,0,3.49,3.42,10.47,10.47,0,0,0,5.18,1.242A10.671,10.671,0,0,0,1072.18,340.551Zm14.49-17.3a6.877,6.877,0,0,0-2.88,3.222l0.4,0.972v-5.184h-2.45v18.9h2.55v-9.936a7.8,7.8,0,0,1,.81-3.69,5.547,5.547,0,0,1,2.31-2.34,7.223,7.223,0,0,1,3.51-.81,5.574,5.574,0,0,1,4.19,1.53,6.2,6.2,0,0,1,1.5,4.518v10.728h2.55v-10.98a9.337,9.337,0,0,0-.99-4.536,6.355,6.355,0,0,0-2.73-2.682,8.9,8.9,0,0,0-4.05-.882A9.115,9.115,0,0,0,1086.67,323.253Zm20.72,23.508a5.99,5.99,0,0,0,1.42-4.194v-20.3h-2.56v20.3a3.866,3.866,0,0,1-.81,2.664,2.955,2.955,0,0,1-2.32.9,4.418,4.418,0,0,1-2.95-.972l-0.9,1.944a4.709,4.709,0,0,0,1.78.918,8,8,0,0,0,2.22.306A5.283,5.283,0,0,0,1107.39,346.761Zm1.51-29.214a1.833,1.833,0,0,0,.52-1.332,1.653,1.653,0,0,0-.54-1.26,1.87,1.87,0,0,0-1.33-.5,1.839,1.839,0,0,0-1.33.522,1.709,1.709,0,0,0-.54,1.278,1.768,1.768,0,0,0,.54,1.3A1.933,1.933,0,0,0,1108.9,317.547Zm19.71,22.554a9,9,0,0,0,3.44-3.42,9.865,9.865,0,0,0,1.24-4.986,9.743,9.743,0,0,0-1.24-4.986,9.114,9.114,0,0,0-3.42-3.384,10.593,10.593,0,0,0-9.92-.018,9.076,9.076,0,0,0-3.42,3.384,10.5,10.5,0,0,0,0,9.972,9.133,9.133,0,0,0,3.42,3.438,9.7,9.7,0,0,0,4.93,1.242A9.9,9.9,0,0,0,1128.61,340.1Zm-8.55-1.944a6.749,6.749,0,0,1-2.5-2.592,8.473,8.473,0,0,1,0-7.758,6.7,6.7,0,0,1,2.52-2.574,7.518,7.518,0,0,1,7.2,0,6.648,6.648,0,0,1,2.5,2.574,8.637,8.637,0,0,1,0,7.758,6.609,6.609,0,0,1-2.5,2.592,7.139,7.139,0,0,1-3.64.918A6.943,6.943,0,0,1,1120.06,338.157Zm20.54,9.72a5.622,5.622,0,0,0,2.07-1.53,10.889,10.889,0,0,0,1.74-2.916l9.47-21.168h-2.52l-7.77,17.532-0.29.4-1.23,2.772a6.608,6.608,0,0,1-1.74,2.466,3.483,3.483,0,0,1-2.18.7,4.557,4.557,0,0,1-1.89-.378,5.64,5.64,0,0,1-1.57-1.062l-1.18,1.908a5.421,5.421,0,0,0,2.07,1.3,7.44,7.44,0,0,0,2.53.432A6.611,6.611,0,0,0,1140.6,347.877Zm4.21-8.262-7.7-17.352h-2.67l8.71,19.44ZM781.934,384.363v-17.1l-0.072-1.188V363.2a3.708,3.708,0,0,1,.864-2.664,3.287,3.287,0,0,1,2.484-.9,4.989,4.989,0,0,1,1.548.234,3.639,3.639,0,0,1,1.26.7l0.864-1.908a4.267,4.267,0,0,0-1.692-.9,7.568,7.568,0,0,0-2.088-.288,5.231,5.231,0,0,0-5.724,5.616v21.276h2.556Zm5.76-16.776v-2.124h-11.7v2.124h11.7Zm6.011,16.776v-9.648a7.3,7.3,0,0,1,1.692-5.166,6.083,6.083,0,0,1,4.68-1.818,2.32,2.32,0,0,1,.288.018,2.142,2.142,0,0,0,.288.018v-2.484a8.819,8.819,0,0,0-4.644,1.134,6.228,6.228,0,0,0-2.664,3.294l0.252,0.9v-5.148h-2.448v18.9h2.556Zm23.6-.612a8.1,8.1,0,0,0,3.15-2.3l-1.44-1.656a6.684,6.684,0,0,1-2.574,1.872,8.4,8.4,0,0,1-3.222.612,8.128,8.128,0,0,1-3.906-.918,6.658,6.658,0,0,1-2.664-2.556,7.408,7.408,0,0,1-.954-3.8v-0.4a7.761,7.761,0,0,1,.864-3.708,6.257,6.257,0,0,1,2.412-2.52,6.829,6.829,0,0,1,3.492-.9,6.706,6.706,0,0,1,3.492.9,6.5,6.5,0,0,1,2.394,2.5,7.45,7.45,0,0,1,.882,3.654l1.008-.756H805.153v1.908h16.452q0-.216.018-0.414t0.018-.378a10.326,10.326,0,0,0-1.188-5.022,8.6,8.6,0,0,0-3.258-3.384,9.767,9.767,0,0,0-9.468.036,8.931,8.931,0,0,0-3.312,3.4,10.018,10.018,0,0,0-1.206,4.968,9.775,9.775,0,0,0,1.26,4.986,9.018,9.018,0,0,0,3.492,3.42,10.486,10.486,0,0,0,5.184,1.242A10.654,10.654,0,0,0,817.3,383.751Zm21.744,0a8.106,8.106,0,0,0,3.15-2.3l-1.44-1.656a6.691,6.691,0,0,1-2.574,1.872,8.4,8.4,0,0,1-3.222.612,8.125,8.125,0,0,1-3.906-.918,6.652,6.652,0,0,1-2.664-2.556,7.408,7.408,0,0,1-.954-3.8v-0.4a7.761,7.761,0,0,1,.864-3.708,6.257,6.257,0,0,1,2.412-2.52,6.826,6.826,0,0,1,3.492-.9,6.708,6.708,0,0,1,3.492.9,6.506,6.506,0,0,1,2.394,2.5,7.45,7.45,0,0,1,.882,3.654l1.008-.756H826.9v1.908h16.452c0-.144,0-0.282.018-0.414s0.018-.257.018-0.378a10.326,10.326,0,0,0-1.188-5.022,8.6,8.6,0,0,0-3.258-3.384,9.767,9.767,0,0,0-9.468.036,8.931,8.931,0,0,0-3.312,3.4,10.008,10.008,0,0,0-1.206,4.968,9.765,9.765,0,0,0,1.26,4.986,9.011,9.011,0,0,0,3.492,3.42,10.486,10.486,0,0,0,5.184,1.242A10.654,10.654,0,0,0,839.047,383.751Zm28.295,0.126a5.865,5.865,0,0,0,2.664-1.872,4.589,4.589,0,0,0,.918-2.862,4.286,4.286,0,0,0-.666-2.5,4.43,4.43,0,0,0-1.764-1.476,11.936,11.936,0,0,0-2.412-.828q-1.314-.3-2.628-0.522a17.722,17.722,0,0,1-2.412-.558,4.564,4.564,0,0,1-1.764-.954,2.183,2.183,0,0,1-.666-1.692,2.682,2.682,0,0,1,1.206-2.25,6.417,6.417,0,0,1,3.762-.882,11.3,11.3,0,0,1,2.88.378,8.61,8.61,0,0,1,2.7,1.242l1.116-2.052a10.129,10.129,0,0,0-3.024-1.278,14.3,14.3,0,0,0-3.672-.486,10.568,10.568,0,0,0-4.086.7,5.711,5.711,0,0,0-2.538,1.926,4.692,4.692,0,0,0-.864,2.772,4.51,4.51,0,0,0,.666,2.592,4.685,4.685,0,0,0,1.746,1.53,9.688,9.688,0,0,0,2.394.846q1.314,0.289,2.646.5a21.753,21.753,0,0,1,2.412.522,4.369,4.369,0,0,1,1.746.9,2.082,2.082,0,0,1,.666,1.638,2.631,2.631,0,0,1-1.188,2.25,6.863,6.863,0,0,1-3.888.846,11.359,11.359,0,0,1-3.78-.63,10.9,10.9,0,0,1-2.952-1.494l-1.152,2.016a9.495,9.495,0,0,0,3.276,1.674,14.455,14.455,0,0,0,4.428.666A11.878,11.878,0,0,0,867.342,383.877Zm13.194-17.424a6.872,6.872,0,0,0-2.88,3.222l0.5,0.972v-13H875.6v26.712h2.556v-9.936a7.8,7.8,0,0,1,.81-3.69,5.556,5.556,0,0,1,2.3-2.34,7.25,7.25,0,0,1,3.51-.81,5.593,5.593,0,0,1,4.194,1.53,6.223,6.223,0,0,1,1.494,4.518v10.728h2.556v-10.98a9.337,9.337,0,0,0-.99-4.536,6.353,6.353,0,0,0-2.736-2.682,8.873,8.873,0,0,0-4.05-.882A9.112,9.112,0,0,0,880.536,366.453Zm21.96,17.91v-18.9H899.94v18.9H902.5Zm0.09-23.616a1.847,1.847,0,0,0,.522-1.332,1.653,1.653,0,0,0-.54-1.26,1.88,1.88,0,0,0-1.332-.5,1.845,1.845,0,0,0-1.332.522,1.709,1.709,0,0,0-.54,1.278,1.768,1.768,0,0,0,.54,1.3A1.935,1.935,0,0,0,902.586,360.747Zm21.636,22.572a8.86,8.86,0,0,0,3.366-3.384,10.951,10.951,0,0,0,0-10.062,8.711,8.711,0,0,0-3.366-3.384,9.7,9.7,0,0,0-4.842-1.206,8.94,8.94,0,0,0-4.464,1.116,7.962,7.962,0,0,0-3.132,3.258,10.925,10.925,0,0,0-1.152,5.238,10.781,10.781,0,0,0,1.17,5.238,8.2,8.2,0,0,0,3.15,3.276,8.744,8.744,0,0,0,4.428,1.134A9.586,9.586,0,0,0,924.222,383.319Zm-12.042,8.028v-12.6l-0.36-3.816,0.252-3.78v-5.688h-2.448v25.884h2.556Zm3.4-9.99a6.543,6.543,0,0,1-2.52-2.592,7.919,7.919,0,0,1-.918-3.87,7.819,7.819,0,0,1,.918-3.852,6.715,6.715,0,0,1,2.52-2.592,7.033,7.033,0,0,1,3.618-.936,6.812,6.812,0,0,1,6.12,3.528,7.708,7.708,0,0,1,.936,3.852,7.807,7.807,0,0,1-.936,3.87,6.727,6.727,0,0,1-2.52,2.592,7.052,7.052,0,0,1-3.6.918A7.14,7.14,0,0,1,915.582,381.357Zm33.047,1.962A8.846,8.846,0,0,0,952,379.935a10.951,10.951,0,0,0,0-10.062,8.7,8.7,0,0,0-3.366-3.384,9.7,9.7,0,0,0-4.842-1.206,8.942,8.942,0,0,0-4.464,1.116,7.975,7.975,0,0,0-3.132,3.258,10.937,10.937,0,0,0-1.152,5.238,10.792,10.792,0,0,0,1.17,5.238,8.21,8.21,0,0,0,3.15,3.276,8.749,8.749,0,0,0,4.428,1.134A9.584,9.584,0,0,0,948.629,383.319Zm-12.042,8.028v-12.6l-0.36-3.816,0.252-3.78v-5.688h-2.448v25.884h2.556Zm3.4-9.99a6.549,6.549,0,0,1-2.52-2.592,7.919,7.919,0,0,1-.918-3.87,7.819,7.819,0,0,1,.918-3.852,6.723,6.723,0,0,1,2.52-2.592,7.038,7.038,0,0,1,3.618-.936,6.812,6.812,0,0,1,6.12,3.528,7.7,7.7,0,0,1,.936,3.852,7.8,7.8,0,0,1-.936,3.87,6.713,6.713,0,0,1-2.52,2.592,7.047,7.047,0,0,1-3.6.918A7.145,7.145,0,0,1,939.989,381.357ZM961,384.363v-18.9h-2.556v18.9H961Zm0.09-23.616a1.842,1.842,0,0,0,.522-1.332,1.653,1.653,0,0,0-.54-1.26,1.878,1.878,0,0,0-1.332-.5,1.847,1.847,0,0,0-1.332.522,1.709,1.709,0,0,0-.54,1.278,1.768,1.768,0,0,0,.54,1.3A1.935,1.935,0,0,0,961.085,360.747Zm11.97,5.706a6.877,6.877,0,0,0-2.88,3.222l0.4,0.972v-5.184h-2.448v18.9h2.556v-9.936a7.8,7.8,0,0,1,.81-3.69,5.556,5.556,0,0,1,2.3-2.34,7.255,7.255,0,0,1,3.51-.81,5.593,5.593,0,0,1,4.194,1.53,6.219,6.219,0,0,1,1.494,4.518v10.728h2.556v-10.98a9.337,9.337,0,0,0-.99-4.536,6.347,6.347,0,0,0-2.736-2.682,8.867,8.867,0,0,0-4.05-.882A9.115,9.115,0,0,0,973.055,366.453Zm34.545,22.788q2.385-2.286,2.39-7.182v-16.6h-2.45v5.724l0.25,3.24-0.36,3.24v4.716q0,3.528-1.69,5.2t-5.29,1.674a12.248,12.248,0,0,1-4.157-.7,9.867,9.867,0,0,1-3.294-1.89l-1.3,1.944a9.8,9.8,0,0,0,3.852,2.16,16.281,16.281,0,0,0,4.965.756Q1005.2,391.527,1007.6,389.241Zm-3.01-6.678a8.041,8.041,0,0,0,3.2-3.132,11.116,11.116,0,0,0,0-10.008,7.8,7.8,0,0,0-3.2-3.1,9.722,9.722,0,0,0-4.54-1.044,10.158,10.158,0,0,0-4.855,1.152,8.628,8.628,0,0,0-3.4,3.222,9.815,9.815,0,0,0,0,9.558,8.7,8.7,0,0,0,3.4,3.258,10.032,10.032,0,0,0,4.855,1.17A9.457,9.457,0,0,0,1004.59,382.563Zm-7.973-2.07a6.431,6.431,0,0,1-2.556-2.448,7.021,7.021,0,0,1-.918-3.618,6.924,6.924,0,0,1,.918-3.6,6.483,6.483,0,0,1,2.556-2.43,8.187,8.187,0,0,1,7.393,0,6.636,6.636,0,0,1,2.56,2.43,6.86,6.86,0,0,1,.94,3.6,6.955,6.955,0,0,1-.94,3.618,6.58,6.58,0,0,1-2.56,2.448A8.187,8.187,0,0,1,996.617,380.493Zm42.6,2.808a8.937,8.937,0,0,0,3.44-3.42,9.865,9.865,0,0,0,1.24-4.986,9.743,9.743,0,0,0-1.24-4.986,9.114,9.114,0,0,0-3.42-3.384,10.593,10.593,0,0,0-9.92-.018,9.076,9.076,0,0,0-3.42,3.384,10.5,10.5,0,0,0,0,9.972,9.133,9.133,0,0,0,3.42,3.438,9.728,9.728,0,0,0,4.93,1.242A9.9,9.9,0,0,0,1039.22,383.3Zm-8.55-1.944a6.749,6.749,0,0,1-2.5-2.592,8.473,8.473,0,0,1,0-7.758,6.7,6.7,0,0,1,2.52-2.574,7.518,7.518,0,0,1,7.2,0,6.579,6.579,0,0,1,2.5,2.574,8.637,8.637,0,0,1,0,7.758,6.541,6.541,0,0,1-2.5,2.592,7.139,7.139,0,0,1-3.64.918A6.968,6.968,0,0,1,1030.67,381.357Zm23.38-14.9a6.877,6.877,0,0,0-2.88,3.222l0.4,0.972v-5.184h-2.45v18.9h2.56v-9.936a7.8,7.8,0,0,1,.81-3.69,5.582,5.582,0,0,1,2.3-2.34,7.277,7.277,0,0,1,3.51-.81,5.614,5.614,0,0,1,4.2,1.53,6.244,6.244,0,0,1,1.49,4.518v10.728h2.56v-10.98a9.337,9.337,0,0,0-.99-4.536,6.378,6.378,0,0,0-2.74-2.682,8.844,8.844,0,0,0-4.05-.882A9.14,9.14,0,0,0,1054.05,366.453Zm43.13,17.91V372.627c0-2.471-.66-4.314-2-5.526a8.128,8.128,0,0,0-5.67-1.818,13.423,13.423,0,0,0-4.24.666,10.212,10.212,0,0,0-3.46,1.89l1.15,1.908a9.013,9.013,0,0,1,2.81-1.62,9.981,9.981,0,0,1,3.49-.612,5.6,5.6,0,0,1,4.02,1.3,4.9,4.9,0,0,1,1.35,3.708V379.5l0.1,0.684v4.176h2.45Zm-4.48-.936a5.987,5.987,0,0,0,2.5-2.988l-0.57-1.764a5.714,5.714,0,0,1-2.29,2.862,6.823,6.823,0,0,1-3.73.99,5.637,5.637,0,0,1-3.52-.972,3.286,3.286,0,0,1-.2-5c0.71-.648,1.97-0.972,3.8-0.972h6.44v-1.908h-6.52a10.437,10.437,0,0,0-4.3.738,4.931,4.931,0,0,0-2.3,1.944,5.215,5.215,0,0,0-.7,2.682,5.049,5.049,0,0,0,.82,2.862,5.509,5.509,0,0,0,2.4,1.944,8.932,8.932,0,0,0,3.69.7A8.3,8.3,0,0,0,1092.7,383.427Zm13.99,0.936V357.651h-2.56v26.712h2.56Zm9.68,0V357.651h-2.56v26.712h2.56Zm29.23-1.062a8.937,8.937,0,0,0,3.44-3.42,9.865,9.865,0,0,0,1.24-4.986,9.743,9.743,0,0,0-1.24-4.986,9.114,9.114,0,0,0-3.42-3.384,10.593,10.593,0,0,0-9.92-.018,9.076,9.076,0,0,0-3.42,3.384,10.5,10.5,0,0,0,0,9.972,9.133,9.133,0,0,0,3.42,3.438,9.728,9.728,0,0,0,4.93,1.242A9.9,9.9,0,0,0,1145.6,383.3Zm-8.55-1.944a6.749,6.749,0,0,1-2.5-2.592,8.473,8.473,0,0,1,0-7.758,6.7,6.7,0,0,1,2.52-2.574,7.518,7.518,0,0,1,7.2,0,6.579,6.579,0,0,1,2.5,2.574,8.637,8.637,0,0,1,0,7.758,6.541,6.541,0,0,1-2.5,2.592,7.139,7.139,0,0,1-3.64.918A6.968,6.968,0,0,1,1137.05,381.357Zm21.01,3.006v-9.648a7.292,7.292,0,0,1,1.69-5.166,6.089,6.089,0,0,1,4.68-1.818,2.352,2.352,0,0,1,.29.018,2.071,2.071,0,0,0,.29.018v-2.484a8.842,8.842,0,0,0-4.65,1.134,6.221,6.221,0,0,0-2.66,3.294l0.25,0.9v-5.148h-2.45v18.9h2.56Zm23.42-.954a8.158,8.158,0,0,0,3.11-3.294,10.938,10.938,0,0,0,1.15-5.22,10.8,10.8,0,0,0-1.17-5.238,8.111,8.111,0,0,0-3.13-3.258,8.852,8.852,0,0,0-4.45-1.116,9.694,9.694,0,0,0-4.84,1.206,8.663,8.663,0,0,0-3.36,3.366,10.9,10.9,0,0,0,0,10.062,8.735,8.735,0,0,0,3.36,3.4,9.582,9.582,0,0,0,4.84,1.224A8.828,8.828,0,0,0,1181.48,383.409Zm-7.87-2.052a6.657,6.657,0,0,1-2.52-2.592,8.473,8.473,0,0,1,0-7.758,6.7,6.7,0,0,1,2.52-2.574,6.973,6.973,0,0,1,3.56-.918,7.142,7.142,0,0,1,3.62.918,6.56,6.56,0,0,1,2.52,2.574,8.637,8.637,0,0,1,0,7.758,6.523,6.523,0,0,1-2.52,2.592,7.142,7.142,0,0,1-3.62.918A6.973,6.973,0,0,1,1173.61,381.357Zm13.14,3.006V357.651h-2.56v13.392l0.36,3.816-0.25,3.816v5.688h2.45Zm19.31-.612a8.1,8.1,0,0,0,3.15-2.3l-1.44-1.656a6.716,6.716,0,0,1-2.57,1.872,8.41,8.41,0,0,1-3.22.612,8.128,8.128,0,0,1-3.91-.918,6.61,6.61,0,0,1-2.66-2.556,7.372,7.372,0,0,1-.96-3.8v-0.4a7.717,7.717,0,0,1,.87-3.708,6.226,6.226,0,0,1,2.41-2.52,6.832,6.832,0,0,1,3.49-.9,6.678,6.678,0,0,1,3.49.9,6.513,6.513,0,0,1,2.4,2.5,7.428,7.428,0,0,1,.88,3.654l1.01-.756h-15.09v1.908h16.46c0-.144,0-0.282.01-0.414a2.459,2.459,0,0,0,.02-0.378,10.238,10.238,0,0,0-1.19-5.022,8.562,8.562,0,0,0-3.25-3.384,9.267,9.267,0,0,0-4.74-1.206,9.123,9.123,0,0,0-4.73,1.242,8.854,8.854,0,0,0-3.31,3.4,9.957,9.957,0,0,0-1.21,4.968,9.775,9.775,0,0,0,1.26,4.986,9,9,0,0,0,3.49,3.42,10.509,10.509,0,0,0,5.19,1.242A10.62,10.62,0,0,0,1206.06,383.751Zm12.12,0.612v-9.648a7.292,7.292,0,0,1,1.69-5.166,6.089,6.089,0,0,1,4.68-1.818,2.478,2.478,0,0,1,.29.018,2.025,2.025,0,0,0,.28.018v-2.484a8.829,8.829,0,0,0-4.64,1.134,6.175,6.175,0,0,0-2.66,3.294l0.25,0.9v-5.148h-2.45v18.9h2.56Zm21.11-.486a5.862,5.862,0,0,0,2.66-1.872,4.542,4.542,0,0,0,.92-2.862,4.315,4.315,0,0,0-.66-2.5,4.5,4.5,0,0,0-1.77-1.476,11.79,11.79,0,0,0-2.41-.828c-0.88-.2-1.75-0.378-2.63-0.522a17.831,17.831,0,0,1-2.41-.558,4.531,4.531,0,0,1-1.76-.954,2.165,2.165,0,0,1-.67-1.692,2.672,2.672,0,0,1,1.21-2.25,6.389,6.389,0,0,1,3.76-.882,11.3,11.3,0,0,1,2.88.378,8.61,8.61,0,0,1,2.7,1.242l1.11-2.052a10.125,10.125,0,0,0-3.02-1.278,14.282,14.282,0,0,0-3.67-.486,10.6,10.6,0,0,0-4.09.7,5.774,5.774,0,0,0-2.54,1.926,4.731,4.731,0,0,0-.86,2.772,4.465,4.465,0,0,0,.67,2.592,4.636,4.636,0,0,0,1.74,1.53,9.676,9.676,0,0,0,2.4.846q1.305,0.289,2.64.5a21.613,21.613,0,0,1,2.41.522,4.36,4.36,0,0,1,1.75.9,2.1,2.1,0,0,1,.67,1.638,2.638,2.638,0,0,1-1.19,2.25,6.866,6.866,0,0,1-3.89.846,11.359,11.359,0,0,1-3.78-.63,10.91,10.91,0,0,1-2.95-1.494l-1.15,2.016a9.461,9.461,0,0,0,3.27,1.674,14.459,14.459,0,0,0,4.43.666A11.847,11.847,0,0,0,1239.29,383.877ZM791.618,426.5a8.965,8.965,0,0,0,3.438-3.42A9.886,9.886,0,0,0,796.3,418.1a9.764,9.764,0,0,0-1.242-4.986,9.093,9.093,0,0,0-3.42-3.384,10.589,10.589,0,0,0-9.918-.018,9.069,9.069,0,0,0-3.42,3.384,10.5,10.5,0,0,0,0,9.972,9.126,9.126,0,0,0,3.42,3.438,9.712,9.712,0,0,0,4.932,1.242A9.919,9.919,0,0,0,791.618,426.5Zm-8.55-1.944a6.747,6.747,0,0,1-2.5-2.592,8.506,8.506,0,0,1,0-7.758,6.739,6.739,0,0,1,2.52-2.574,7.518,7.518,0,0,1,7.2,0,6.632,6.632,0,0,1,2.5,2.574,8.654,8.654,0,0,1,0,7.758,6.593,6.593,0,0,1-2.5,2.592,7.121,7.121,0,0,1-3.636.918A6.947,6.947,0,0,1,783.068,424.557Zm25.4,3.006,8.424-18.9h-2.52L806.558,426.2h1.26l-7.7-17.532H797.45l8.388,18.9h2.628Zm23.669-.612a8.1,8.1,0,0,0,3.15-2.3l-1.44-1.656a6.684,6.684,0,0,1-2.574,1.872,8.4,8.4,0,0,1-3.222.612,8.128,8.128,0,0,1-3.906-.918A6.658,6.658,0,0,1,821.479,422a7.408,7.408,0,0,1-.954-3.8v-0.4a7.761,7.761,0,0,1,.864-3.708,6.257,6.257,0,0,1,2.412-2.52,6.829,6.829,0,0,1,3.492-.9,6.706,6.706,0,0,1,3.492.9,6.5,6.5,0,0,1,2.394,2.5,7.45,7.45,0,0,1,.882,3.654l1.008-.756H819.985v1.908h16.452q0-.216.018-0.414t0.018-.378a10.326,10.326,0,0,0-1.188-5.022,8.6,8.6,0,0,0-3.258-3.384,9.767,9.767,0,0,0-9.468.036,8.931,8.931,0,0,0-3.312,3.4,10.018,10.018,0,0,0-1.206,4.968,9.775,9.775,0,0,0,1.26,4.986,9.018,9.018,0,0,0,3.492,3.42,10.486,10.486,0,0,0,5.184,1.242A10.654,10.654,0,0,0,832.135,426.951Zm12.114,0.612v-9.648a7.3,7.3,0,0,1,1.692-5.166,6.081,6.081,0,0,1,4.68-1.818,2.332,2.332,0,0,1,.288.018,2.131,2.131,0,0,0,.288.018v-2.484a8.814,8.814,0,0,0-4.644,1.134,6.223,6.223,0,0,0-2.664,3.294l0.252,0.9v-5.148h-2.448v18.9h2.556Zm46.655-13.32V412.7H863.076v1.548H890.9Zm0-4.968v-1.548H863.076v1.548H890.9Zm-21.132,18.288v-9.216l-1.188,1.26h7.956a13.253,13.253,0,0,0,5.508-1.044,8.041,8.041,0,0,0,3.546-2.97,8.28,8.28,0,0,0,1.242-4.59,8.422,8.422,0,0,0-1.242-4.662,7.936,7.936,0,0,0-3.546-2.952,13.471,13.471,0,0,0-5.508-1.026h-9.4v25.2h2.628Zm0-24.156-1.188,1.26h7.92a8.711,8.711,0,0,1,5.724,1.656,5.762,5.762,0,0,1,1.98,4.68,5.666,5.666,0,0,1-1.98,4.626,8.767,8.767,0,0,1-5.724,1.638h-7.92l1.188,1.3V403.407Zm40.968,24.156v-2.3H895.116l0.72,1.008,9.612-9.432a19.65,19.65,0,0,0,2.574-2.97,9.046,9.046,0,0,0,1.224-2.5,8.677,8.677,0,0,0,.342-2.412,6.228,6.228,0,0,0-3.924-5.994,11.092,11.092,0,0,0-4.428-.81,13.565,13.565,0,0,0-5.148.936,9.655,9.655,0,0,0-3.78,2.664l1.836,1.584a7.432,7.432,0,0,1,2.934-2.124,10.577,10.577,0,0,1,3.942-.684,6.689,6.689,0,0,1,4.41,1.26,4.283,4.283,0,0,1,1.494,3.456A6.466,6.466,0,0,1,905.7,413a16.819,16.819,0,0,1-2.16,2.466l-10.476,10.26v1.836H910.74Zm18.4-1.314a10.341,10.341,0,0,0,3.582-4.392,18.742,18.742,0,0,0,0-13.788,10.347,10.347,0,0,0-3.582-4.392,9.547,9.547,0,0,0-10.368,0,10.226,10.226,0,0,0-3.564,4.392,18.984,18.984,0,0,0,0,13.788,10.22,10.22,0,0,0,3.564,4.392A9.547,9.547,0,0,0,929.136,426.249ZM920.1,424.2a7.742,7.742,0,0,1-2.628-3.528,17.86,17.86,0,0,1,0-11.412,7.748,7.748,0,0,1,2.628-3.528,6.812,6.812,0,0,1,7.74,0,7.861,7.861,0,0,1,2.592,3.528,17.86,17.86,0,0,1,0,11.412,7.855,7.855,0,0,1-2.592,3.528A6.812,6.812,0,0,1,920.1,424.2Zm32.868,2.052a10.348,10.348,0,0,0,3.582-4.392,18.742,18.742,0,0,0,0-13.788,10.354,10.354,0,0,0-3.582-4.392,9.547,9.547,0,0,0-10.368,0,10.226,10.226,0,0,0-3.564,4.392,18.984,18.984,0,0,0,0,13.788,10.22,10.22,0,0,0,3.564,4.392A9.547,9.547,0,0,0,952.968,426.249Zm-9.036-2.052a7.728,7.728,0,0,1-2.628-3.528,17.86,17.86,0,0,1,0-11.412,7.734,7.734,0,0,1,2.628-3.528,6.812,6.812,0,0,1,7.74,0,7.875,7.875,0,0,1,2.592,3.528,17.86,17.86,0,0,1,0,11.412,7.87,7.87,0,0,1-2.592,3.528A6.812,6.812,0,0,1,943.932,424.2Zm32.867,2.052a10.341,10.341,0,0,0,3.582-4.392,18.742,18.742,0,0,0,0-13.788,10.347,10.347,0,0,0-3.582-4.392,9.547,9.547,0,0,0-10.368,0,10.226,10.226,0,0,0-3.564,4.392,18.984,18.984,0,0,0,0,13.788,10.22,10.22,0,0,0,3.564,4.392A9.547,9.547,0,0,0,976.8,426.249Zm-9.036-2.052a7.742,7.742,0,0,1-2.628-3.528,17.86,17.86,0,0,1,0-11.412,7.748,7.748,0,0,1,2.628-3.528,6.812,6.812,0,0,1,7.74,0,7.861,7.861,0,0,1,2.592,3.528,17.86,17.86,0,0,1,0,11.412A7.855,7.855,0,0,1,975.5,424.2,6.812,6.812,0,0,1,967.763,424.2Zm20.538,2.97a1.939,1.939,0,0,0,.558-1.4,1.909,1.909,0,1,0-3.816,0,1.939,1.939,0,0,0,.558,1.4A1.87,1.87,0,0,0,988.3,427.167Zm26.259,0.4a14.99,14.99,0,0,0,7.08-1.6,11.8,11.8,0,0,0,4.73-4.446,13.546,13.546,0,0,0,0-13.1,11.815,11.815,0,0,0-4.73-4.446,15,15,0,0,0-7.08-1.6H1004.3v25.2h10.26Zm-7.59-22.9h7.45a12.171,12.171,0,0,1,5.81,1.314,9.655,9.655,0,0,1,3.84,3.618,11.223,11.223,0,0,1,0,10.71,9.6,9.6,0,0,1-3.84,3.636,12.159,12.159,0,0,1-5.81,1.314h-7.45V404.667Zm39.2,21.834a9,9,0,0,0,3.44-3.42,9.865,9.865,0,0,0,1.24-4.986,9.743,9.743,0,0,0-1.24-4.986,9.114,9.114,0,0,0-3.42-3.384,10.593,10.593,0,0,0-9.92-.018,9.076,9.076,0,0,0-3.42,3.384,10.5,10.5,0,0,0,0,9.972,9.133,9.133,0,0,0,3.42,3.438,9.7,9.7,0,0,0,4.93,1.242A9.9,9.9,0,0,0,1046.17,426.5Zm-8.55-1.944a6.749,6.749,0,0,1-2.5-2.592,8.473,8.473,0,0,1,0-7.758,6.7,6.7,0,0,1,2.52-2.574,7.518,7.518,0,0,1,7.2,0,6.648,6.648,0,0,1,2.5,2.574,8.637,8.637,0,0,1,0,7.758,6.609,6.609,0,0,1-2.5,2.592,7.139,7.139,0,0,1-3.64.918A6.943,6.943,0,0,1,1037.62,424.557Zm23.38-14.9a6.877,6.877,0,0,0-2.88,3.222l0.4,0.972v-5.184h-2.45v18.9h2.56v-9.936a7.8,7.8,0,0,1,.81-3.69,5.525,5.525,0,0,1,2.3-2.34,7.277,7.277,0,0,1,3.51-.81,5.574,5.574,0,0,1,4.19,1.53,6.2,6.2,0,0,1,1.5,4.518v10.728h2.55v-10.98a9.337,9.337,0,0,0-.99-4.536,6.355,6.355,0,0,0-2.73-2.682,8.9,8.9,0,0,0-4.05-.882A9.115,9.115,0,0,0,1061,409.653Zm20.41,2.214,0.18-9.5h-2.26l0.18,9.5h1.9Zm14.42,15.552a4.685,4.685,0,0,0,1.82-1.008l-0.9-1.836a4.116,4.116,0,0,1-2.81.972,3.192,3.192,0,0,1-2.43-.9,3.6,3.6,0,0,1-.84-2.556v-17.6h-2.56v17.748a5.015,5.015,0,0,0,5.54,5.508A7.416,7.416,0,0,0,1095.83,427.419Zm0.6-16.632v-2.124h-11.7v2.124h11.7Zm33.85-.882a7.461,7.461,0,0,0-2.93,3.726l1.01,0.4a6.53,6.53,0,0,0-2.52-4.158,7.935,7.935,0,0,0-4.72-1.386,8.591,8.591,0,0,0-4.55,1.17,6.691,6.691,0,0,0-2.79,3.222l0.39,0.9v-5.112h-2.44v18.9h2.55v-9.936a8.047,8.047,0,0,1,.78-3.69,5.381,5.381,0,0,1,2.21-2.34,6.7,6.7,0,0,1,3.35-.81,5.261,5.261,0,0,1,4.03,1.53,6.366,6.366,0,0,1,1.44,4.518v10.728h2.56v-9.936a8.048,8.048,0,0,1,.77-3.69,5.475,5.475,0,0,1,2.2-2.34,6.66,6.66,0,0,1,3.36-.81,5.223,5.223,0,0,1,4.02,1.53,6.455,6.455,0,0,1,1.42,4.518v10.728h2.55v-10.98a9.7,9.7,0,0,0-.95-4.536,6.256,6.256,0,0,0-2.66-2.682,8.658,8.658,0,0,0-4.02-.882A8.84,8.84,0,0,0,1130.28,409.905Zm22.2,17.658v-18.9h-2.56v18.9h2.56Zm0.09-23.616a1.874,1.874,0,0,0,.52-1.332,1.653,1.653,0,0,0-.54-1.26,1.887,1.887,0,0,0-1.33-.5,1.862,1.862,0,0,0-1.34.522,1.709,1.709,0,0,0-.54,1.278,1.768,1.768,0,0,0,.54,1.3,1.825,1.825,0,0,0,1.34.54A1.8,1.8,0,0,0,1152.57,403.947Zm16.34,23.13a5.862,5.862,0,0,0,2.66-1.872,4.542,4.542,0,0,0,.92-2.862,4.315,4.315,0,0,0-.66-2.5,4.5,4.5,0,0,0-1.77-1.476,11.79,11.79,0,0,0-2.41-.828c-0.88-.2-1.75-0.378-2.63-0.522a17.831,17.831,0,0,1-2.41-.558,4.531,4.531,0,0,1-1.76-.954,2.165,2.165,0,0,1-.67-1.692,2.672,2.672,0,0,1,1.21-2.25,6.389,6.389,0,0,1,3.76-.882,11.3,11.3,0,0,1,2.88.378,8.61,8.61,0,0,1,2.7,1.242l1.11-2.052a10.125,10.125,0,0,0-3.02-1.278,14.282,14.282,0,0,0-3.67-.486,10.6,10.6,0,0,0-4.09.7,5.774,5.774,0,0,0-2.54,1.926,4.731,4.731,0,0,0-.86,2.772,4.465,4.465,0,0,0,.67,2.592,4.636,4.636,0,0,0,1.74,1.53,9.676,9.676,0,0,0,2.4.846q1.3,0.289,2.64.5a21.613,21.613,0,0,1,2.41.522,4.36,4.36,0,0,1,1.75.9,2.1,2.1,0,0,1,.67,1.638,2.638,2.638,0,0,1-1.19,2.25,6.866,6.866,0,0,1-3.89.846,11.359,11.359,0,0,1-3.78-.63,10.91,10.91,0,0,1-2.95-1.494l-1.15,2.016a9.461,9.461,0,0,0,3.27,1.674,14.459,14.459,0,0,0,4.43.666A11.847,11.847,0,0,0,1168.91,427.077Zm17.57,0a5.862,5.862,0,0,0,2.66-1.872,4.6,4.6,0,0,0,.92-2.862,4.243,4.243,0,0,0-.67-2.5,4.4,4.4,0,0,0-1.76-1.476,12,12,0,0,0-2.41-.828c-0.88-.2-1.75-0.378-2.63-0.522a17.484,17.484,0,0,1-2.41-.558,4.651,4.651,0,0,1-1.77-.954,2.194,2.194,0,0,1-.66-1.692,2.686,2.686,0,0,1,1.2-2.25,6.445,6.445,0,0,1,3.77-.882,11.3,11.3,0,0,1,2.88.378,8.61,8.61,0,0,1,2.7,1.242l1.11-2.052a10.125,10.125,0,0,0-3.02-1.278,14.34,14.34,0,0,0-3.67-.486,10.6,10.6,0,0,0-4.09.7,5.718,5.718,0,0,0-2.54,1.926,4.731,4.731,0,0,0-.86,2.772,4.542,4.542,0,0,0,.66,2.592,4.744,4.744,0,0,0,1.75,1.53,9.745,9.745,0,0,0,2.39.846c0.88,0.193,1.76.36,2.65,0.5a21.613,21.613,0,0,1,2.41.522,4.428,4.428,0,0,1,1.75.9,2.092,2.092,0,0,1,.66,1.638,2.628,2.628,0,0,1-1.18,2.25,6.888,6.888,0,0,1-3.89.846,11.359,11.359,0,0,1-3.78-.63,10.763,10.763,0,0,1-2.95-1.494l-1.16,2.016a9.61,9.61,0,0,0,3.28,1.674,14.459,14.459,0,0,0,4.43.666A11.923,11.923,0,0,0,1186.48,427.077Zm30.36-.576a8.937,8.937,0,0,0,3.44-3.42,9.865,9.865,0,0,0,1.24-4.986,9.743,9.743,0,0,0-1.24-4.986,9.114,9.114,0,0,0-3.42-3.384,10.593,10.593,0,0,0-9.92-.018,9.076,9.076,0,0,0-3.42,3.384,10.5,10.5,0,0,0,0,9.972,9.133,9.133,0,0,0,3.42,3.438,9.74,9.74,0,0,0,4.94,1.242A9.894,9.894,0,0,0,1216.84,426.5Zm-8.55-1.944a6.821,6.821,0,0,1-2.5-2.592,8.555,8.555,0,0,1,0-7.758,6.84,6.84,0,0,1,2.52-2.574,7.518,7.518,0,0,1,7.2,0,6.579,6.579,0,0,1,2.5,2.574,8.637,8.637,0,0,1,0,7.758,6.541,6.541,0,0,1-2.5,2.592,7.1,7.1,0,0,1-3.63.918A6.979,6.979,0,0,1,1208.29,424.557Zm30.68,2.016a6.983,6.983,0,0,0,2.79-3.258l-0.4-.936v5.184h2.45v-18.9h-2.56v9.9a8.289,8.289,0,0,1-.77,3.708,5.4,5.4,0,0,1-2.23,2.358,7,7,0,0,1-3.44.81,5.61,5.61,0,0,1-4.2-1.53,6.3,6.3,0,0,1-1.49-4.554V408.663h-2.56v10.98a9.248,9.248,0,0,0,.99,4.5,6.369,6.369,0,0,0,2.79,2.7,9.336,9.336,0,0,0,4.22.9A8.206,8.206,0,0,0,1238.97,426.573Zm20.12,0.846a4.758,4.758,0,0,0,1.82-1.008l-0.9-1.836a4.134,4.134,0,0,1-2.81.972,3.162,3.162,0,0,1-2.43-.9,3.608,3.608,0,0,1-.85-2.556v-17.6h-2.55v17.748a5.015,5.015,0,0,0,5.54,5.508A7.416,7.416,0,0,0,1259.09,427.419Zm0.59-16.632v-2.124h-11.7v2.124h11.7Zm7.96,9.216,0.54-17.64h-3.02l0.5,17.64h1.98Zm0.38,7.182a1.85,1.85,0,0,0,.52-1.314,1.774,1.774,0,0,0-.52-1.314,1.837,1.837,0,0,0-1.35-.522,1.9,1.9,0,0,0-1.35.522,1.733,1.733,0,0,0-.56,1.314,1.808,1.808,0,0,0,.56,1.314,1.829,1.829,0,0,0,1.35.558A1.767,1.767,0,0,0,1268.02,427.185Z" transform="translate(0 -201)"/>
  </g>
</svg>
